<svg width="16" height="16" viewBox="0 0 16 16" fill="none" xmlns="http://www.w3.org/2000/svg">
<g clip-path="url(#clip0_1_12)">
<path d="M8.16129 3.79343C8.17596 3.79372 8.19064 3.79401 8.20576 3.79432C9.16626 3.81577 10.414 3.9071 11.1639 4.58287C11.2177 4.64121 11.2492 4.69438 11.252 4.77523C11.2482 4.87969 11.2008 4.9385 11.129 5.00939C10.4511 5.62934 9.18124 5.749 8.31981 5.75216C8.29869 5.75228 8.27757 5.75239 8.25582 5.75251C8.18802 5.75283 8.12022 5.75291 8.05242 5.75293C8.03509 5.75294 8.03509 5.75294 8.01741 5.75296C7.6653 5.75307 7.31724 5.74783 6.96774 5.69953C6.94631 5.69668 6.92488 5.69383 6.90344 5.69099C5.2748 5.47156 5.2748 5.47156 4.85578 4.92306C4.82512 4.87153 4.80833 4.82337 4.80645 4.76291C4.85589 4.57487 5.02118 4.46716 5.17611 4.37184C5.27519 4.31361 5.37848 4.26568 5.48387 4.22066C5.49516 4.21581 5.50644 4.21097 5.51807 4.20598C6.33228 3.86393 7.28846 3.77372 8.16129 3.79343Z" fill="#CCCCCC"/>
<path d="M6.68048 1.18997C6.84714 1.32228 6.99176 1.48102 7.14012 1.63366C7.16883 1.66307 7.19755 1.69248 7.22628 1.72188C7.2961 1.79337 7.36583 1.86496 7.43548 1.93662C7.41329 1.98742 7.38787 2.02201 7.34922 2.06109C7.33276 2.07787 7.33276 2.07787 7.31596 2.09497C7.30413 2.10686 7.2923 2.11874 7.28011 2.13098C7.26192 2.14944 7.26192 2.14944 7.24337 2.16827C7.20466 2.20753 7.16584 2.24666 7.12701 2.2858C7.10073 2.31241 7.07446 2.33902 7.0482 2.36565C6.98383 2.43086 6.91937 2.49598 6.85484 2.56103C6.80843 2.53828 6.77496 2.5166 6.73859 2.47926C6.72449 2.46485 6.72449 2.46485 6.7101 2.45016C6.69542 2.43489 6.69542 2.43489 6.68044 2.41931C6.67031 2.40889 6.66018 2.39848 6.64975 2.38775C6.59908 2.33532 6.54975 2.28237 6.50302 2.22623C6.40231 2.1061 6.28539 1.98708 6.12701 1.96127C6.00906 1.98217 5.92683 2.08921 5.84663 2.17234C5.83319 2.18613 5.81975 2.19993 5.8059 2.21414C5.76922 2.25181 5.73261 2.28954 5.69602 2.3273C5.65753 2.36696 5.61892 2.4065 5.58032 2.44605C5.44905 2.58058 5.31796 2.71531 5.18702 2.85018C5.1146 2.92477 5.04206 2.99924 4.9694 3.07358C4.93104 3.11284 4.89275 3.15215 4.85461 3.19162C4.81196 3.2357 4.76912 3.27957 4.72623 3.32341C4.71384 3.33632 4.70145 3.34923 4.68869 3.36253C4.54 3.51347 4.35803 3.62183 4.14421 3.63129C4.00932 3.63097 3.87633 3.62433 3.74193 3.61268C3.74445 3.63017 3.74696 3.64767 3.74956 3.66569C3.78793 3.94917 3.78187 4.19797 3.61469 4.4385C3.55659 4.51541 3.4896 4.58232 3.42176 4.65025C3.40605 4.66616 3.39036 4.68208 3.37467 4.698C3.34117 4.73197 3.30761 4.76587 3.27397 4.7997C3.22077 4.85323 3.16776 4.90695 3.11477 4.9607C3.0024 5.07464 2.88982 5.18837 2.77722 5.30208C2.65534 5.42516 2.5335 5.54827 2.4119 5.67163C2.35923 5.72504 2.30645 5.77832 2.25358 5.83152C2.22076 5.86458 2.18804 5.89775 2.15535 5.93095C2.13297 5.95362 2.11047 5.97616 2.08796 5.99869C2.07464 6.01226 2.06133 6.02582 2.04761 6.0398C2.03021 6.05736 2.03021 6.05736 2.01246 6.07527C1.96758 6.1303 1.95161 6.17455 1.95161 6.24589C1.98846 6.38667 2.09122 6.48983 2.19153 6.58891C2.20232 6.59982 2.21311 6.61073 2.22423 6.62196C2.30578 6.70377 2.39098 6.7807 2.47807 6.8563C2.50101 6.87749 2.50101 6.87749 2.53226 6.91549C2.52702 6.97219 2.50338 7.00055 2.46498 7.04023C2.45421 7.05146 2.44344 7.0627 2.43234 7.07427C2.42063 7.0862 2.40892 7.09814 2.39686 7.11043C2.37887 7.12895 2.37887 7.12895 2.36051 7.14784C2.33512 7.17389 2.30967 7.19986 2.28416 7.22578C2.24505 7.2656 2.2063 7.30577 2.16756 7.34596C2.14287 7.3712 2.11816 7.39642 2.09343 7.42161C2.08182 7.43371 2.07021 7.44581 2.05824 7.45827C2.04732 7.46925 2.0364 7.48022 2.02515 7.49153C2.0156 7.50129 2.00605 7.51106 1.99621 7.52111C1.96774 7.53991 1.96774 7.53991 1.93613 7.53861C1.89399 7.51922 1.86835 7.49434 1.83551 7.46112C1.82231 7.44789 1.80912 7.43466 1.79553 7.42103C1.7814 7.40658 1.76727 7.39214 1.75271 7.37726C1.73803 7.36239 1.72335 7.34752 1.70823 7.33221C1.67712 7.30065 1.6461 7.26901 1.61513 7.2373C1.57585 7.19709 1.53632 7.15715 1.49671 7.11728C1.45857 7.0788 1.42067 7.04007 1.38275 7.00138C1.36871 6.98726 1.35468 6.97315 1.34022 6.95861C1.1334 6.74552 1.00547 6.49041 0.994957 6.18838C1.00131 5.93549 1.07788 5.70891 1.24025 5.5172C1.24844 5.50751 1.25664 5.49783 1.26508 5.48784C1.38779 5.34596 1.52296 5.21607 1.65608 5.08448C1.70642 5.03468 1.75651 4.98463 1.80654 4.93451C1.81931 4.92171 1.81931 4.92171 1.83234 4.90866C1.84972 4.89125 1.8671 4.87384 1.88448 4.85643C2.00059 4.74012 2.11682 4.62396 2.23384 4.5086C2.31333 4.43024 2.39238 4.35143 2.47095 4.27211C2.51236 4.23033 2.55395 4.18881 2.5961 4.14781C2.78328 3.9842 2.78328 3.9842 2.89102 3.7699C2.89146 3.70779 2.88452 3.65655 2.87097 3.59624C2.86914 3.55917 2.86788 3.52206 2.86744 3.48494C2.86593 3.44878 2.86442 3.41263 2.8629 3.37647C2.86163 3.33783 2.86037 3.29919 2.85912 3.26054C2.85652 3.18491 2.85203 3.11002 2.84392 3.03479C2.8405 2.924 2.85205 2.85836 2.92691 2.77535C2.98861 2.71261 3.03865 2.68236 3.12884 2.67796C3.18972 2.67879 3.24988 2.68364 3.31048 2.68941C3.3345 2.69111 3.35853 2.69273 3.38256 2.69425C3.39391 2.695 3.40526 2.69574 3.41696 2.6965C3.44173 2.69807 3.4665 2.69955 3.49127 2.70091C3.56065 2.70485 3.62873 2.71097 3.69756 2.7207C3.83433 2.73566 3.95415 2.73906 4.06956 2.6544C4.16007 2.57701 4.23986 2.4894 4.32025 2.4014C4.35052 2.36951 4.38108 2.33791 4.41165 2.30631C4.4834 2.23179 4.55418 2.15638 4.62461 2.08057C4.72768 1.96974 4.83223 1.86038 4.93672 1.75094C4.95228 1.73464 4.96783 1.71833 4.98339 1.70203C4.99481 1.69006 4.99481 1.69006 5.00646 1.67786C5.05821 1.62357 5.10954 1.56889 5.16074 1.51406C5.57701 1.06986 6.12187 0.784288 6.68048 1.18997Z" fill="#CCCCCC"/>
<path d="M1.91935 8.44366C1.96922 8.46628 2.00317 8.49216 2.04153 8.53154C2.058 8.54832 2.058 8.54832 2.07479 8.56543C2.08645 8.57748 2.09811 8.58953 2.11013 8.60195C2.12221 8.6143 2.13429 8.62666 2.14674 8.63939C2.18527 8.67882 2.22368 8.71837 2.2621 8.75793C2.28821 8.7847 2.31434 8.81146 2.34047 8.83822C2.40449 8.9038 2.46841 8.96947 2.53226 9.03521C2.50916 9.08427 2.48648 9.11879 2.44846 9.15723C2.43323 9.17272 2.43323 9.17272 2.41769 9.18851C2.40693 9.19927 2.39617 9.21002 2.38508 9.2211C2.3741 9.2322 2.36312 9.24331 2.35181 9.25475C2.29824 9.30858 2.24432 9.36095 2.18649 9.41007C2.08491 9.49797 1.98901 9.60969 1.95161 9.74179C1.94785 9.83178 1.99268 9.873 2.04819 9.93615C2.10063 9.9938 2.15499 10.0493 2.20986 10.1046C2.22226 10.1171 2.23465 10.1297 2.24742 10.1426C2.27413 10.1696 2.30086 10.1967 2.3276 10.2237C2.37004 10.2665 2.41241 10.3095 2.45477 10.3524C2.57513 10.4745 2.69555 10.5965 2.81615 10.7183C2.89011 10.7931 2.96396 10.8679 3.03773 10.9428C3.06571 10.9712 3.09374 10.9996 3.12181 11.0278C3.58062 11.4901 3.58062 11.4901 3.5837 11.816C3.58368 11.835 3.58368 11.835 3.58367 11.8543C3.58368 11.8673 3.58369 11.8803 3.5837 11.8938C3.58277 12.0003 3.57085 12.1024 3.54839 12.2066C3.56496 12.2042 3.58153 12.2018 3.5986 12.1994C3.87582 12.1609 4.12946 12.1531 4.37097 12.3216C4.54706 12.4732 4.70628 12.6457 4.8682 12.8125C4.91559 12.8613 4.9631 12.9101 5.01062 12.9588C5.02701 12.9756 5.04339 12.9924 5.05978 13.0092C5.06797 13.0176 5.07616 13.026 5.0846 13.0346C5.19489 13.1477 5.30509 13.2608 5.41506 13.3742C5.48977 13.4512 5.56462 13.528 5.63963 13.6047C5.67916 13.6451 5.71862 13.6856 5.7579 13.7263C5.80155 13.7715 5.84552 13.8164 5.88951 13.8613C5.90235 13.8747 5.91519 13.8881 5.92842 13.9019C5.99767 13.9719 6.04696 14.0171 6.14516 14.0305C6.30328 13.9935 6.42066 13.8739 6.52186 13.7501C6.54818 13.7186 6.57581 13.6897 6.60484 13.6608C6.65616 13.6095 6.70347 13.5553 6.75031 13.4998C6.76825 13.4788 6.78714 13.4586 6.80645 13.439C6.86328 13.4441 6.89096 13.4697 6.93011 13.5101C6.94141 13.5216 6.95271 13.5331 6.96435 13.5449C6.98237 13.5637 6.98237 13.5637 7.00076 13.5828C7.01319 13.5956 7.02563 13.6083 7.03845 13.6214C7.07817 13.6622 7.11771 13.7031 7.15726 13.744C7.18415 13.7716 7.21105 13.7993 7.23797 13.8269C7.30393 13.8946 7.36976 13.9625 7.43548 14.0305C7.36129 14.121 7.28282 14.2056 7.20142 14.2893C7.18185 14.3095 7.18185 14.3095 7.16189 14.33C7.13438 14.3583 7.10685 14.3865 7.07929 14.4147C7.05137 14.4433 7.02352 14.472 6.99574 14.5008C6.95525 14.5428 6.91455 14.5845 6.8738 14.6262C6.86162 14.6389 6.84943 14.6516 6.83687 14.6647C6.62591 14.8787 6.3709 14.9978 6.07189 15.0005C5.61095 14.9797 5.35371 14.6741 5.05465 14.3581C4.95579 14.2537 4.85609 14.1502 4.75643 14.0466C4.6598 13.9461 4.56345 13.8454 4.46791 13.7439C4.3915 13.6627 4.31451 13.5821 4.23682 13.5021C4.19591 13.4599 4.15533 13.4176 4.11542 13.3744C3.92948 13.1602 3.92948 13.1602 3.67512 13.071C3.62148 13.0729 3.56962 13.0787 3.51677 13.0881C3.47539 13.0954 3.4345 13.0971 3.39258 13.0985C3.36891 13.1004 3.34524 13.1024 3.32157 13.1044C3.29484 13.1061 3.26811 13.1078 3.24137 13.1094C3.20099 13.1118 3.16076 13.1145 3.12047 13.1182C3.08032 13.1218 3.04026 13.124 3 13.126C2.98825 13.1274 2.9765 13.1287 2.9644 13.1302C2.87844 13.1327 2.81103 13.0927 2.74591 13.0382C2.69415 12.9879 2.6636 12.943 2.65788 12.8691C2.66297 12.7776 2.67876 12.6878 2.69274 12.5974C2.73525 12.3205 2.76476 12.0366 2.60084 11.7963C2.53223 11.7074 2.45858 11.6256 2.3796 11.5463C2.37162 11.5383 2.36364 11.5302 2.35541 11.522C2.25619 11.423 2.15321 11.3286 2.04855 11.2357C1.94996 11.148 1.85454 11.0569 1.75904 10.9657C1.72522 10.9334 1.69138 10.9012 1.6575 10.869C1.64929 10.8612 1.64107 10.8534 1.63261 10.8453C1.57677 10.7924 1.5202 10.7404 1.46321 10.6888C1.44811 10.675 1.43301 10.6613 1.41746 10.6471C1.38958 10.6217 1.36156 10.5966 1.33336 10.5716C1.13111 10.387 1.01904 10.1372 0.996471 9.86329C0.987134 9.59495 1.0716 9.34742 1.24376 9.14555C1.25199 9.13584 1.26023 9.12613 1.26871 9.11613C1.38894 8.97664 1.51973 8.84732 1.64919 8.71685C1.67552 8.69019 1.70183 8.66353 1.72814 8.63687C1.79179 8.57238 1.85553 8.50798 1.91935 8.44366Z" fill="#CCCCCC"/>
<path d="M14.0484 8.44366C14.1834 8.55865 14.3067 8.68549 14.4315 8.81176C14.4602 8.8408 14.4891 8.86975 14.518 8.8986C14.7859 9.16571 14.9926 9.40405 15.0014 9.80578C15.0004 9.97084 14.9653 10.1215 14.8962 10.2707C14.8918 10.2804 14.8875 10.2902 14.883 10.3002C14.7685 10.5269 14.5318 10.7111 14.3547 10.8856C14.2536 10.9854 14.1531 11.0859 14.0527 11.1864C13.9553 11.2838 13.8576 11.3809 13.7593 11.4774C13.6805 11.5545 13.6023 11.6322 13.5247 11.7106C13.4838 11.7518 13.4427 11.7928 13.4009 11.8331C13.1958 12.0157 13.1958 12.0157 13.1072 12.265C13.1095 12.3237 13.1185 12.3788 13.129 12.4366C13.1308 12.4759 13.1321 12.5152 13.1326 12.5545C13.1341 12.5905 13.1356 12.6265 13.1371 12.6626C13.1384 12.7008 13.1396 12.7391 13.1409 12.7773C13.143 12.8364 13.1461 12.8947 13.1525 12.9535C13.1614 13.0624 13.1471 13.1273 13.0806 13.2151C12.9842 13.31 12.8778 13.3046 12.7506 13.3027C12.65 13.2988 12.5597 13.2869 12.4623 13.2606C12.2957 13.222 12.1244 13.2088 11.9724 13.3012C11.7346 13.4744 11.5354 13.7074 11.3381 13.9256C11.249 14.024 11.1581 14.1205 11.0671 14.2169C11.035 14.251 11.0029 14.285 10.9708 14.3191C10.9631 14.3274 10.9553 14.3356 10.9473 14.3442C10.8943 14.4006 10.8418 14.4575 10.7896 14.5146C10.7757 14.5298 10.7617 14.545 10.7473 14.5606C10.7216 14.5887 10.6959 14.6169 10.6704 14.6452C10.4662 14.8671 10.227 14.982 9.93095 14.9994C9.64644 15.0024 9.39348 14.8903 9.1889 14.6905C9.15964 14.6607 9.13056 14.6307 9.10162 14.6006C9.08598 14.5845 9.07032 14.5685 9.05465 14.5524C9.01396 14.5107 8.97348 14.4688 8.93303 14.4269C8.89151 14.3839 8.84981 14.3411 8.80812 14.2983C8.72673 14.2147 8.64556 14.1309 8.56451 14.047C8.6319 13.965 8.70212 13.8881 8.77659 13.8129C8.79249 13.7967 8.79249 13.7967 8.80872 13.7802C8.8422 13.7462 8.87573 13.7122 8.90927 13.6783C8.93215 13.655 8.95502 13.6318 8.97788 13.6086C9.0336 13.552 9.08937 13.4955 9.14516 13.439C9.20074 13.4657 9.2372 13.4958 9.28074 13.5405C9.29407 13.5541 9.3074 13.5677 9.32113 13.5817C9.34181 13.6031 9.34181 13.6031 9.3629 13.6249C9.38358 13.6459 9.38358 13.6459 9.40467 13.6674C9.50708 13.7725 9.50708 13.7725 9.55029 13.8276C9.61876 13.9147 9.72225 13.9923 9.82762 14.0254C9.90078 14.0317 9.92148 14.0203 9.98387 13.9812C10.0316 13.9391 10.0755 13.8936 10.1196 13.8477C10.1329 13.8341 10.1462 13.8205 10.1599 13.8065C10.1887 13.777 10.2174 13.7474 10.2461 13.7178C10.2915 13.6709 10.3371 13.6241 10.3828 13.5773C10.488 13.4695 10.593 13.3615 10.698 13.2535C10.7941 13.1546 10.8902 13.0557 10.9866 12.9571C11.0391 12.9033 11.0914 12.8493 11.1437 12.7953C11.1714 12.7669 11.1991 12.7385 11.2269 12.7101C11.2391 12.6974 11.2513 12.6846 11.2639 12.6715C11.4483 12.4836 11.6527 12.3598 11.9194 12.3545C12.1835 12.3658 12.1835 12.3658 12.2581 12.4038C12.2546 12.3764 12.2546 12.3764 12.251 12.3484C12.2158 12.065 12.2059 11.8137 12.371 11.5657C12.5141 11.3905 12.6795 11.2333 12.838 11.0728C12.8865 11.0237 12.9349 10.9745 12.9834 10.9252C13.1209 10.7855 13.2586 10.6458 13.3964 10.5062C13.4728 10.4288 13.5491 10.3513 13.6254 10.2737C13.6736 10.2248 13.7217 10.1759 13.77 10.1271C13.8069 10.0898 13.8437 10.0523 13.8805 10.0148C13.9005 9.99468 13.9005 9.99468 13.9209 9.97412C13.9331 9.96174 13.9452 9.94935 13.9577 9.93659C13.9683 9.92588 13.9788 9.91517 13.9897 9.90413C14.0315 9.8553 14.0481 9.82227 14.0494 9.75719C14.0186 9.58538 13.8717 9.45372 13.748 9.34537C13.6492 9.25883 13.5592 9.16251 13.4677 9.06808C13.4899 9.01727 13.5153 8.98269 13.554 8.9436C13.565 8.93242 13.576 8.92124 13.5873 8.90972C13.605 8.8919 13.605 8.8919 13.6231 8.87372C13.6413 8.85526 13.6413 8.85526 13.6599 8.83642C13.6986 8.79717 13.7374 8.75803 13.7762 8.7189C13.8025 8.69229 13.8288 8.66567 13.855 8.63905C13.9194 8.57383 13.9839 8.50871 14.0484 8.44366Z" fill="#CCCCCC"/>
<path d="M10.5058 1.19625C10.6025 1.28534 10.6933 1.37847 10.7823 1.47557C10.8121 1.50787 10.8419 1.54014 10.8718 1.5724C10.8834 1.58497 10.8834 1.58497 10.8952 1.59779C11.0044 1.71575 11.1152 1.83216 11.2258 1.94866C11.3155 2.0432 11.4047 2.13822 11.4926 2.23448C11.5699 2.31905 11.6481 2.4025 11.7276 2.48486C11.7695 2.52828 11.8107 2.57203 11.8508 2.61718C12.0384 2.83015 12.0384 2.83015 12.2956 2.92216C12.424 2.92803 12.5507 2.91491 12.6779 2.89766C13.1294 2.84135 13.1294 2.84135 13.2681 2.94513C13.372 3.08925 13.339 3.31311 13.3226 3.48122C13.3131 3.52076 13.3029 3.56015 13.2922 3.59937C13.255 3.76708 13.2415 3.93165 13.3331 4.08429C13.5083 4.32986 13.7407 4.53621 13.9589 4.74137C14.0748 4.85047 14.1885 4.96189 14.3023 5.07324C14.3193 5.08982 14.3362 5.1064 14.3532 5.12299C14.3656 5.13515 14.3656 5.13515 14.3783 5.14756C14.427 5.19507 14.476 5.24216 14.5254 5.28889C14.7882 5.53761 14.9816 5.75751 15.0007 6.14068C15.0045 6.31755 14.9703 6.47931 14.8962 6.63923C14.8918 6.64897 14.8875 6.6587 14.883 6.66873C14.822 6.78961 14.7209 6.88439 14.629 6.98122C14.6184 6.99248 14.6077 7.00374 14.5968 7.01534C14.5263 7.08973 14.4552 7.16352 14.3837 7.23694C14.3588 7.2626 14.3339 7.28835 14.3092 7.31419C14.273 7.35193 14.2366 7.3894 14.2001 7.42681C14.1835 7.44426 14.1835 7.44426 14.1666 7.46207C14.1562 7.47257 14.1459 7.48306 14.1352 7.49388C14.1262 7.5032 14.1172 7.51251 14.1079 7.52211C14.0806 7.53991 14.0806 7.53991 14.0486 7.53783C14.0103 7.52092 13.9879 7.50119 13.9582 7.47137C13.9472 7.4604 13.9362 7.44943 13.9248 7.43812C13.9072 7.42023 13.9072 7.42023 13.8893 7.40197C13.8772 7.38975 13.8651 7.37753 13.8526 7.36494C13.827 7.33907 13.8015 7.31314 13.7761 7.28715C13.737 7.24731 13.6976 7.20783 13.6581 7.16836C13.6333 7.14321 13.6086 7.11804 13.5839 7.09285C13.572 7.08102 13.5601 7.06919 13.5479 7.057C13.5371 7.04587 13.5263 7.03474 13.5152 7.02328C13.5056 7.01355 13.4961 7.00382 13.4862 6.9938C13.4677 6.96479 13.4677 6.96479 13.4706 6.93089C13.4916 6.88056 13.5273 6.84966 13.5655 6.81177C13.5736 6.80375 13.5816 6.79574 13.5899 6.78748C13.6344 6.7435 13.6798 6.70096 13.7268 6.65977C13.8657 6.53779 13.9923 6.42097 14.0484 6.23871C14.0484 6.14808 13.9994 6.09021 13.9402 6.02741C13.9149 6.00166 13.8895 5.97605 13.864 5.95055C13.8501 5.93648 13.8363 5.92241 13.822 5.90792C13.7919 5.87744 13.7617 5.84701 13.7315 5.81666C13.6836 5.76857 13.636 5.72029 13.5883 5.67199C13.4785 5.56072 13.3685 5.4497 13.2585 5.33869C13.1576 5.23698 13.0569 5.13522 12.9563 5.03326C12.909 4.98534 12.8616 4.93753 12.8142 4.88982C12.7776 4.853 12.7411 4.81602 12.7047 4.77907C12.6916 4.76602 12.6786 4.75297 12.6651 4.73953C12.4895 4.56066 12.4136 4.37419 12.4133 4.12002C12.4146 4.00338 12.423 3.89042 12.4516 3.777C12.436 3.78056 12.436 3.78056 12.42 3.78419C12.1916 3.83003 11.9129 3.85305 11.7074 3.72216C11.5992 3.64733 11.5084 3.56206 11.4168 3.46724C11.4011 3.45124 11.3855 3.43525 11.3698 3.41927C11.3364 3.38515 11.3031 3.35095 11.2698 3.31669C11.2172 3.26249 11.1644 3.20848 11.1116 3.15449C11.0092 3.04974 10.9069 2.9448 10.8047 2.83984C10.6742 2.70592 10.5437 2.57209 10.413 2.43842C10.3605 2.38473 10.3081 2.33097 10.2558 2.27713C10.2233 2.24372 10.1907 2.21038 10.1581 2.17705C10.1358 2.15422 10.1136 2.13131 10.0914 2.1084C10.0781 2.09483 10.0649 2.08126 10.0512 2.06729C10.0397 2.05547 10.0281 2.04365 10.0163 2.03148C9.97586 1.99516 9.94094 1.97193 9.88697 1.96583C9.67064 1.9825 9.50997 2.19275 9.37701 2.34948C9.36847 2.35969 9.35992 2.36989 9.35112 2.38041C9.29614 2.44347 9.23654 2.50204 9.17742 2.56104C9.12755 2.53842 9.0936 2.51254 9.05524 2.47316C9.04426 2.46197 9.03329 2.45079 9.02198 2.43927C9.01032 2.42722 8.99866 2.41517 8.98664 2.40275C8.97456 2.3904 8.96248 2.37804 8.95003 2.36531C8.9115 2.32588 8.87309 2.28633 8.83468 2.24678C8.80856 2.22 8.78243 2.19324 8.7563 2.16648C8.69229 2.1009 8.62836 2.03523 8.56451 1.96949C8.58773 1.9155 8.61644 1.8795 8.6571 1.83779C8.67569 1.81861 8.67569 1.81861 8.69465 1.79905C8.71481 1.77854 8.71481 1.77854 8.73538 1.75761C8.75622 1.73627 8.75622 1.73627 8.77748 1.7145C8.80694 1.68439 8.83644 1.65433 8.86599 1.6243C8.91081 1.57869 8.95541 1.53287 9 1.48702C9.02871 1.45773 9.05744 1.42845 9.08619 1.39918C9.10596 1.37882 9.10596 1.37882 9.12612 1.35804C9.49076 0.989473 10.0747 0.834684 10.5058 1.19625Z" fill="#CCCCCC"/>
<path d="M4.80645 10.1197C4.85462 10.1392 4.9016 10.1591 4.94783 10.1829C5.53951 10.4822 6.18915 10.6293 6.84072 10.7164C6.86784 10.72 6.86784 10.72 6.89551 10.7237C6.95715 10.7314 7.01884 10.738 7.08064 10.7441C7.1019 10.7463 7.1019 10.7463 7.12359 10.7484C7.41186 10.7763 7.69924 10.783 7.98857 10.7822C8.02374 10.7821 8.05891 10.7821 8.09408 10.7821C8.44118 10.7815 8.78438 10.7725 9.12903 10.7277C9.14802 10.7254 9.16701 10.7231 9.18658 10.7208C9.90356 10.6337 10.5947 10.4494 11.2419 10.1197C11.2442 10.2653 11.2459 10.4108 11.2469 10.5564C11.2475 10.624 11.2481 10.6916 11.2492 10.7592C11.2503 10.8245 11.2509 10.8898 11.2511 10.9551C11.2513 10.98 11.2516 11.0048 11.2522 11.0296C11.2569 11.2647 11.2569 11.2647 11.1695 11.3618C11.1615 11.3695 11.1534 11.3771 11.1452 11.385C11.1334 11.397 11.1216 11.409 11.1095 11.4214C10.3344 12.0499 9.13042 12.1389 8.17742 12.1573C8.16427 12.1576 8.15113 12.1578 8.13758 12.1581C8.05403 12.1596 7.97064 12.1589 7.88709 12.1573C7.87251 12.1571 7.85793 12.1569 7.84291 12.1567C7.03964 12.1434 6.1953 12.038 5.45161 11.7136C5.43925 11.7083 5.4269 11.7029 5.41416 11.6975C5.20562 11.6062 4.93418 11.4837 4.82956 11.2669C4.79203 11.162 4.80049 11.0514 4.80172 10.9413C4.80181 10.9176 4.80188 10.8938 4.80193 10.87C4.80212 10.8079 4.80259 10.7458 4.80313 10.6837C4.80362 10.6201 4.80384 10.5565 4.80409 10.493C4.8046 10.3686 4.80543 10.2441 4.80645 10.1197Z" fill="#CCCCCC"/>
<path d="M4.80645 8C4.87785 8.01277 4.93363 8.03925 4.99698 8.07394C5.73295 8.45991 6.61616 8.59191 7.43548 8.64085C7.45098 8.64177 7.46647 8.6427 7.48243 8.64365C8.70624 8.71298 10.0765 8.60774 11.1761 8.01637C11.2097 8 11.2097 8 11.2419 8C11.2434 8.14398 11.2446 8.28796 11.2453 8.43195C11.2456 8.49882 11.2461 8.56568 11.2468 8.63254C11.2475 8.69711 11.2479 8.76167 11.2481 8.82624C11.2482 8.85083 11.2484 8.87542 11.2488 8.90001C11.2492 8.93455 11.2493 8.96907 11.2493 9.00361C11.2494 9.02324 11.2495 9.04287 11.2497 9.06309C11.2336 9.17576 11.1476 9.26029 11.0645 9.33099C10.2314 9.93568 9.02415 10.0255 8.03528 10.0242C8.02107 10.0242 8.00685 10.0242 7.9922 10.0242C7.0534 10.0224 5.71075 9.96046 4.96774 9.29812C4.9566 9.28836 4.94545 9.27859 4.93397 9.26853C4.85624 9.19534 4.81119 9.12583 4.80222 9.01646C4.80085 8.952 4.80101 8.88766 4.80173 8.8232C4.80182 8.79942 4.80189 8.77564 4.80193 8.75185C4.80212 8.68959 4.80259 8.62732 4.80313 8.56506C4.80363 8.50139 4.80385 8.43772 4.80409 8.37405C4.80461 8.24936 4.80543 8.12468 4.80645 8Z" fill="#CCCCCC"/>
<path d="M4.80645 5.86385C4.86137 5.88221 4.91402 5.90026 4.96553 5.92707C5.70459 6.30264 6.5526 6.45089 7.37096 6.50469C7.38681 6.50574 7.38681 6.50574 7.40298 6.5068C7.60842 6.51998 7.81333 6.52445 8.01915 6.5242C8.03453 6.52419 8.04991 6.52418 8.06576 6.52417C9.07938 6.52241 10.2691 6.42452 11.16 5.89241C11.2097 5.86385 11.2097 5.86385 11.2419 5.86385C11.2434 6.00783 11.2446 6.15181 11.2453 6.2958C11.2456 6.36266 11.2461 6.42952 11.2468 6.49639C11.2475 6.56095 11.2479 6.62551 11.2481 6.69008C11.2482 6.71468 11.2484 6.73927 11.2488 6.76386C11.2492 6.7984 11.2493 6.83291 11.2493 6.86745C11.2494 6.88708 11.2495 6.90672 11.2497 6.92694C11.2326 7.04618 11.1361 7.13684 11.0484 7.21126C10.3939 7.67276 9.50551 7.81385 8.7258 7.86854C8.70726 7.86996 8.68872 7.87137 8.66962 7.87283C8.46132 7.88775 8.25308 7.88826 8.04435 7.88805C8.01648 7.88804 8.01648 7.88804 7.98805 7.88802C7.01611 7.88661 5.81263 7.80389 5 7.19483C4.9849 7.18371 4.9849 7.18371 4.9695 7.17237C4.89093 7.11051 4.82564 7.03246 4.80645 6.93192C4.80504 6.89678 4.80455 6.86159 4.80462 6.82641C4.80462 6.80503 4.80462 6.78366 4.80462 6.76163C4.8047 6.73837 4.80479 6.71512 4.80487 6.69186C4.8049 6.66801 4.80493 6.64416 4.80494 6.6203C4.805 6.55763 4.80516 6.49496 4.80534 6.43229C4.80551 6.36829 4.80558 6.3043 4.80566 6.2403C4.80583 6.11482 4.80611 5.98933 4.80645 5.86385Z" fill="#CCCCCC"/>
</g>
<defs>
<clipPath id="clip0_1_12">
<rect width="14" height="14" fill="white" transform="translate(1 1)"/>
</clipPath>
</defs>
</svg>
