<?xml version="1.0" encoding="UTF-8"?>
<svg version="1.1" xmlns="http://www.w3.org/2000/svg" width="868" height="852">
<path d="M0 0 C0.90991699 0.01788574 1.81983398 0.03577148 2.75732422 0.05419922 C62.30807959 1.35976067 139.66706222 6.91779247 186.16015625 48.04296875 C189.49846374 51.59390729 191.44812402 54.82963181 191.625 59.75 C191.38922045 66.10661676 188.44813385 69.68570381 184 74 C141.97052303 111.72843534 63.23727124 119.01064888 9.828125 119.203125 C8.51890076 119.21013931 7.20967651 119.21715363 5.86077881 119.22438049 C1.6571809 119.2437801 -2.54636184 119.2488147 -6.75 119.25 C-7.82444366 119.25066278 -7.82444366 119.25066278 -8.92059326 119.25133896 C-30.7510758 119.25840129 -52.33130259 118.93944082 -74 116 C-75.32874036 115.82638683 -76.65751734 115.65305377 -77.98632812 115.47998047 C-178.96203558 102.126116 -178.96203558 102.126116 -204.94140625 68.74609375 C-206.84259753 65.61018047 -207.88320296 62.67910677 -208 59 C-204.93480612 47.5566095 -194.68644822 41.00157902 -185.08105469 35.20068359 C-178.93841775 31.65663286 -172.53433094 28.7402033 -166 26 C-165.3002002 25.70528809 -164.60040039 25.41057617 -163.87939453 25.10693359 C-113.39865485 4.2907315 -54.11534802 -1.1994579 0 0 Z " fill="#252F3E" transform="translate(444,170)"/>
<path d="M0 0 C10.33286487 8.05206539 19.29907275 17.71220406 28.49731445 27.0012207 C30.27744495 28.7914002 32.05804009 30.58111779 33.83911133 32.37036133 C38.16805368 36.72116689 42.49121288 41.07765198 46.80981445 45.4387207 C45.43366085 48.53051206 43.85823 50.63510824 41.46166992 53.01391602 C40.44083817 54.03452118 40.44083817 54.03452118 39.39938354 55.07574463 C38.66599762 55.79880798 37.93261169 56.52187134 37.17700195 57.2668457 C36.0492485 58.39035431 36.0492485 58.39035431 34.89871216 59.53656006 C32.49873544 61.9253509 30.09189436 64.30708967 27.68481445 66.6887207 C26.05545093 68.30805239 24.42653911 69.92783872 22.7980957 71.5480957 C18.8072264 75.51692575 14.8107003 79.47998969 10.80981445 83.4387207 C7.93279074 82.05431362 5.85724344 80.73439754 3.6027832 78.4621582 C2.72819458 77.58551514 2.72819458 77.58551514 1.8359375 76.69116211 C0.92581909 75.76182861 0.92581909 75.76182861 -0.00268555 74.8137207 C-0.63070068 74.17998535 -1.25871582 73.54625 -1.90576172 72.89331055 C-5.04713238 69.70253057 -8.10541431 66.48031415 -11.00268555 63.0637207 C-17.24689075 55.75266637 -24.49562546 48.50985032 -34.31518555 46.9387207 C-41.62850758 48.2106028 -46.72627547 54.72491457 -51.69897461 59.78393555 C-52.53234848 60.62344254 -53.36572235 61.46294952 -54.22434998 62.32789612 C-56.49861233 64.62015285 -58.7684673 66.91667806 -61.03706455 69.2145381 C-63.42317489 71.62818714 -65.81667423 74.03447991 -68.2098999 76.44107056 C-76.34912023 84.6284249 -84.47649694 92.82747536 -92.5949707 101.03540039 C-97.08498532 105.57472947 -101.58233211 110.10666842 -106.08745551 114.63100398 C-108.46548051 117.01990046 -110.83950324 119.4124906 -113.20423126 121.81455612 C-115.84824889 124.49723212 -118.50456927 127.16715033 -121.16381836 129.8347168 C-121.93195358 130.62037521 -122.70008881 131.40603363 -123.49150085 132.21549988 C-132.71021558 141.40159313 -143.99213497 147.99589347 -157.2487793 148.5715332 C-165.61221844 148.55219577 -173.85771869 148.14786682 -182.19018555 147.4387207 C-182.03420898 148.50348633 -181.87823242 149.56825195 -181.7175293 150.6652832 C-179.33839614 167.91699753 -179.71386497 183.05815805 -190.07950401 197.69595909 C-193.68148255 202.37661238 -197.83457803 206.44873003 -202.04101562 210.58251953 C-203.01483256 211.55056307 -203.98795701 212.51930363 -204.96044922 213.48867798 C-207.037198 215.55602474 -209.11849102 217.61863855 -211.20356178 219.67759132 C-214.50213001 222.9352559 -217.78892325 226.20463532 -221.07414246 229.47575378 C-228.04142009 236.40989582 -235.02140436 243.33118198 -242.00268555 250.2512207 C-249.55896822 257.74133594 -257.1129546 265.23368854 -264.65243834 272.74071902 C-267.91759695 275.99095503 -271.18992192 279.23374354 -274.46797812 282.47096884 C-276.50278715 284.48339049 -278.53135294 286.50201691 -280.55828094 288.5223732 C-281.94591721 289.90172488 -283.341071 291.27350099 -284.73643494 292.64503479 C-285.5620694 293.47045776 -286.38770386 294.29588074 -287.23835754 295.14631653 C-288.31704463 296.21501087 -288.31704463 296.21501087 -289.41752338 297.30529499 C-292.20026249 300.65436358 -293.19018555 303.34717048 -293.19018555 307.6887207 C-290.90552699 316.25619027 -284.53443893 322.53400647 -278.31518555 328.5637207 C-277.64616211 329.22758789 -276.97713867 329.89145508 -276.2878418 330.57543945 C-271.23172836 335.55361665 -265.94914473 340.23585699 -260.54980469 344.83642578 C-259.12768555 346.1262207 -259.12768555 346.1262207 -257.19018555 348.4387207 C-257.51489768 351.88887279 -258.98031189 353.61477619 -261.36132812 356.02978516 C-262.02904739 356.71341629 -262.69676666 357.39704742 -263.38471985 358.10139465 C-264.11071884 358.82759506 -264.83671783 359.55379547 -265.5847168 360.30200195 C-266.70036263 361.42906807 -266.70036263 361.42906807 -267.83854675 362.5789032 C-269.41256938 364.16372791 -270.9905851 365.74459525 -272.57226562 367.32177734 C-274.99696212 369.74549957 -277.39955153 372.18975746 -279.80151367 374.63598633 C-281.33211254 376.1717904 -282.86397176 377.70633964 -284.3972168 379.23950195 C-285.1171431 379.97582352 -285.8370694 380.71214508 -286.57881165 381.47077942 C-287.2559874 382.13864975 -287.93316315 382.80652008 -288.63085938 383.49462891 C-289.22296707 384.08879105 -289.81507477 384.68295319 -290.42512512 385.29512024 C-292.19018555 386.4387207 -292.19018555 386.4387207 -294.15023804 386.35987854 C-296.76292784 385.18009344 -298.35214297 383.66545101 -300.38867188 381.64428711 C-301.20664749 380.83899567 -302.02462311 380.03370422 -302.86738586 379.20401001 C-303.74348007 378.32498016 -304.61957428 377.44595032 -305.5222168 376.5402832 C-306.43218918 375.63555267 -307.34216156 374.73082214 -308.27970886 373.79867554 C-310.20880165 371.8785208 -312.13210602 369.95278494 -314.05175781 368.02319336 C-316.48734668 365.57621334 -318.93824229 363.14527399 -321.39415455 360.71871376 C-323.75885084 358.37704416 -326.10838079 356.02036765 -328.4597168 353.6652832 C-329.32973831 352.80649567 -330.19975983 351.94770813 -331.09614563 351.06289673 C-343.9192346 338.09442693 -351.85108165 322.56938068 -352.50268555 304.1887207 C-352.10862268 288.79837633 -347.36143104 275.00968956 -337.29467773 263.34277344 C-336.78653408 262.75315291 -336.27839043 262.16353239 -335.75484848 261.55604458 C-328.14702293 252.92155106 -319.76673939 245.01647352 -311.51300812 237.00856209 C-308.39192067 233.97811167 -305.28666491 230.93176021 -302.18475342 227.88169861 C-301.39276279 227.1030993 -301.39276279 227.1030993 -300.58477235 226.30877072 C-299.50715921 225.24925352 -298.42959696 224.18968456 -297.35208464 223.13006485 C-290.15370226 216.05173535 -282.94716051 208.98272239 -275.69213867 201.96240234 C-270.76364207 197.19311338 -265.86261031 192.3974057 -260.99123931 187.56976122 C-258.42388504 185.02752664 -255.84502352 182.50032649 -253.23181915 180.00517464 C-241.62659599 170.04871028 -241.62659599 170.04871028 -234.94702148 157.00665283 C-234.91927231 153.22692632 -235.34989429 150.10849993 -236.19018555 146.4387207 C-236.30333582 144.18256664 -236.3815426 141.92410674 -236.40893555 139.6652832 C-236.50253323 137.46475589 -236.59628484 135.26423511 -236.69018555 133.0637207 C-236.76891732 130.71217844 -236.847043 128.36061581 -236.92456055 126.0090332 C-237.08559806 121.40626421 -237.36400446 116.84832538 -237.86694336 112.27026367 C-238.07874321 105.52796827 -237.36281749 101.53299029 -232.72143555 96.48168945 C-228.895917 92.66347822 -225.7940027 90.82253919 -220.20220947 90.55435181 C-216.42721557 90.60503256 -212.69752121 90.90026516 -208.94018555 91.2512207 C-207.45097464 91.35501714 -205.96137244 91.45334769 -204.47143555 91.54614258 C-203.76751647 91.59132334 -203.06359739 91.6365041 -202.33834743 91.68305397 C-200.80293289 91.7785952 -199.26715807 91.86862581 -197.73099613 91.95128441 C-193.4298643 92.19093535 -189.20903391 92.56373486 -184.94151306 93.15579224 C-176.46133335 94.0662964 -169.0326253 94.27295504 -161.87753296 89.12095642 C-156.26549328 84.41127723 -151.31886021 79.07920614 -146.3347168 73.72387695 C-144.45779858 71.78300031 -142.56280141 69.86016893 -140.66789246 67.93687439 C-136.21921646 63.40180358 -131.83107855 58.81283377 -127.46396416 54.19931167 C-121.07393759 47.45438272 -114.59154538 40.79914225 -108.11363506 34.13877773 C-107.14892029 33.14656086 -106.1842583 32.15429268 -105.21965027 31.16197205 C-104.51182334 30.43403109 -104.51182334 30.43403109 -103.78969687 29.69138426 C-100.58125081 26.38737357 -97.39841947 23.06000246 -94.22431946 19.72291565 C-68.4154444 -7.30963196 -34.63397984 -24.68891998 0 0 Z " fill="#0070E0" transform="translate(352.190185546875,11.561279296875)"/>
<path d="M0 0 C3.09179136 1.3761536 5.19638753 2.95158445 7.57519531 5.34814453 C8.59580048 6.36897629 8.59580048 6.36897629 9.63702393 7.41043091 C10.36008728 8.14381683 11.08315063 8.87720276 11.828125 9.6328125 C12.57713074 10.38464813 13.32613647 11.13648376 14.09783936 11.91110229 C16.4866302 14.31107901 18.86836897 16.71792009 21.25 19.125 C22.86933169 20.75436352 24.48911802 22.38327534 26.109375 24.01171875 C30.07820505 28.00258806 34.04126899 31.99911415 38 36 C36.5680465 38.98559151 35.16148902 41.086058 32.8046875 43.42578125 C31.8602478 44.36804565 31.8602478 44.36804565 30.89672852 45.3293457 C30.22955811 45.98378662 29.5623877 46.63822754 28.875 47.3125 C28.19429443 47.98821045 27.51358887 48.6639209 26.81225586 49.36010742 C23.49078735 52.63632107 20.14801814 55.82337065 16.5625 58.8125 C10.26421009 64.16192091 4.3188993 70.96114909 2 79 C1.76694325 84.47683364 4.54614977 86.98534487 7.98758125 90.82837486 C11.23905164 94.33707545 14.60949748 97.71520719 18.01147461 101.07739258 C18.7799321 101.84117722 19.54838959 102.60496185 20.34013367 103.39189148 C21.99611194 105.03743178 23.6531883 106.68186764 25.31126213 108.3252964 C27.94255033 110.93439882 30.56971393 113.54758881 33.19569397 116.16203308 C40.65802672 123.59092859 48.12444086 131.01567483 55.60131836 138.42993164 C60.18706924 142.97785888 64.7653271 147.53321713 69.33899117 152.09329796 C71.07399901 153.82029809 72.81177003 155.54452717 74.55244255 157.26581764 C102.99829626 185.40038542 102.99829626 185.40038542 103.18945312 205.23291016 C103.18848633 206.38605713 103.18848633 206.38605713 103.1875 207.5625 C103.18814453 208.35446777 103.18878906 209.14643555 103.18945312 209.96240234 C103.13161219 216.44715941 102.39259781 222.65870638 101 229 C102.02738281 228.855625 103.05476562 228.71125 104.11328125 228.5625 C121.30113636 226.22125566 137.02664313 225.74364136 152 236 C162.9175765 245.2272832 172.78949585 255.72114703 182.82816696 265.87526321 C185.76684991 268.84710029 188.71194443 271.81253024 191.65835571 274.77670288 C192.67437689 275.79898127 193.69039671 276.82126102 194.70641518 277.8435421 C195.21430179 278.35454484 195.7221884 278.86554758 196.24546552 279.39203525 C203.08288566 286.27222627 209.91535216 293.15724132 216.73388672 300.05615234 C221.36563071 304.7423942 226.00622983 309.41966689 230.65712893 314.08690107 C233.10809497 316.54721216 235.55430677 319.01186126 237.98960495 321.48768997 C240.69619997 324.23923134 243.42213073 326.97110291 246.14990234 329.70166016 C246.9458783 330.51718353 247.74185425 331.33270691 248.56195068 332.17294312 C252.85564298 336.43548107 255.91162988 339.18443339 262 340 C271.80343296 337.75003178 279.08115531 330.47158624 285.35546875 322.93359375 C286.98692532 321.01537284 288.70012862 319.25996293 290.5 317.5 C293.68198222 314.37548021 296.61534733 311.08189521 299.51953125 307.69921875 C300.63171172 306.42270555 301.80283014 305.19716986 303 304 C306.52336499 304.31055319 308.23942811 305.87246538 310.66699219 308.32641602 C311.36741638 309.0270668 312.06784058 309.72771759 312.78948975 310.44960022 C313.90689545 311.5902317 313.90689545 311.5902317 315.046875 312.75390625 C315.81807678 313.52935287 316.58927856 314.3047995 317.3838501 315.10374451 C319.8463571 317.58304941 322.29823134 320.07257992 324.75 322.5625 C326.41727909 324.2448244 328.08523969 325.92647367 329.75390625 327.60742188 C333.84387902 331.73047875 337.92516921 335.86198058 342 340 C337.39993504 345.50424233 332.53505876 350.65453655 327.48828125 355.75 C326.27497383 356.97541504 326.27497383 356.97541504 325.03715515 358.22558594 C323.33167378 359.94483253 321.62468095 361.66258094 319.91625977 363.37890625 C318.18486035 365.12183209 316.45793753 366.86921674 314.7355957 368.62109375 C312.22555692 371.17408225 309.70227001 373.71330128 307.17578125 376.25 C306.4201741 377.02311523 305.66456696 377.79623047 304.88606262 378.59277344 C291.80646961 391.62069798 275.99589974 398.86773187 257.45703125 399.03125 C228.87911457 397.76253006 212.93033474 379.16370003 194.38831282 359.93557113 C188.25888139 353.58344501 182.0778499 347.28170733 175.89897442 340.97772849 C169.90759474 334.8645373 163.93378128 328.73638424 158.01074219 322.55688477 C153.27271901 317.6139116 148.49957412 312.708054 143.68282366 307.8417241 C141.14646222 305.2766677 138.63032633 302.69748647 136.15623474 300.07219887 C124.62806523 287.03220777 124.62806523 287.03220777 108.85756683 281.60613918 C105.53202041 281.72444773 102.31674297 282.07354615 99.03981018 282.64723778 C96.47443332 283.09089085 93.93928342 283.19767854 91.33984375 283.28222656 C89.87215259 283.39866627 88.40468846 283.51801352 86.9375 283.640625 C85.28016517 283.74441477 83.62259987 283.84457808 81.96484375 283.94140625 C79.46143858 284.08796871 76.96691182 284.25298132 74.46923828 284.47802734 C71.97958246 284.69587824 69.49596679 284.83108741 67 284.953125 C66.27159912 285.0369342 65.54319824 285.12074341 64.79272461 285.20709229 C59.46350834 285.36299542 55.28407107 282.92735279 51.24633789 279.6105957 C48.03757449 276.54880606 46.14307549 273.81433525 45.78843307 269.31712723 C46.10438063 263.75183659 47.08313361 258.28513706 47.94996643 252.78407288 C50.58540141 235.93226804 52.41489845 218.65584926 42.25191689 204.03269386 C37.99820909 198.62406309 33.43194339 193.64634142 28.53515625 188.81640625 C28.04030715 188.32799617 27.54545806 187.8395861 27.03561354 187.33637571 C20.88373034 181.31289113 14.49899333 175.57088984 8.01006162 169.9146322 C1.89751625 164.57580738 -4.01879219 159.03201439 -9.93945312 153.48242188 C-12.03629613 151.5192819 -14.13460774 149.5577325 -16.23475647 147.59812927 C-16.74404035 147.12291727 -17.25332422 146.64770528 -17.77804095 146.15809292 C-21.24032372 142.93786983 -24.74778162 139.77495858 -28.28123474 136.63294983 C-29.21724014 135.79511459 -30.15324554 134.95727936 -31.11761475 134.09405518 C-32.84589306 132.55141933 -34.58318762 131.01878835 -36.3318634 129.49931335 C-48.87135976 118.26840471 -55.81917712 103.06444391 -57.21875 86.39453125 C-57.79767329 70.06407008 -52.56089646 54.99995379 -41.88671875 42.71484375 C-41.37631042 42.12387909 -40.8659021 41.53291443 -40.34002686 40.92404175 C-32.88598698 32.43557652 -24.776899 24.56502425 -16.75 16.625 C-15.1180183 15.00307824 -13.48650481 13.38068522 -11.85546875 11.7578125 C-7.90901227 7.83310733 -3.95687274 3.91420191 0 0 Z " fill="#0070E0" transform="translate(57,453)"/>
<path d="M0 0 C8.37182781 6.99748344 16.01450214 14.71688566 23.7512207 22.40112305 C25.53491231 24.16827948 27.32394834 25.93005853 29.1184082 27.6862793 C45.7249298 43.94184069 58.54373855 58.44602275 59.0859375 82.89453125 C59.02394422 92.93982623 56.84819336 102.11113578 52.5625 111.1875 C52.29381104 111.77982422 52.02512207 112.37214844 51.74829102 112.98242188 C44.64630794 126.78077306 29.97430213 137.98908612 18.99438792 148.60913634 C12.72132019 154.67975622 6.49497187 160.79811403 0.26574469 166.91365659 C-5.77359223 172.84214285 -11.82667177 178.75477338 -17.92529297 184.62231445 C-22.80690867 189.31914561 -27.65531392 194.04756519 -32.46797919 198.81505662 C-35.00407315 201.32502584 -37.55319525 203.8169656 -40.14356232 206.27098656 C-52.86022649 217.38587039 -52.86022649 217.38587039 -58.35468674 232.55437946 C-58.20882246 236.12907117 -57.65547461 239.47902043 -57 243 C-56.88973832 245.38919382 -56.80994402 247.78031037 -56.78125 250.171875 C-56.68847981 252.36462501 -56.59473676 254.55733408 -56.5 256.75 C-56.42166233 259.07811785 -56.34353494 261.40624279 -56.265625 263.734375 C-56.13550664 267.32862803 -55.94401814 270.87883672 -55.546875 274.453125 C-54.99170598 281.08593386 -55.88019528 285.0300246 -60 290.375 C-65.97691398 296.15094175 -72.57687307 295.8218527 -80.46290588 295.70675659 C-86.70004068 295.46852988 -92.29781534 294.74281365 -98.33764648 293.14355469 C-108.66385011 290.79455335 -119.28751488 289.98995378 -128.70844269 295.61802673 C-143.4552998 306.15598619 -155.80262286 320.33535065 -168.03991687 333.61657071 C-173.56026075 339.60136228 -179.19666747 345.47314949 -184.83789062 351.34375 C-186.82852334 353.41609398 -188.81845941 355.48910177 -190.80735779 357.56311035 C-191.28990129 358.06623953 -191.77244479 358.56936872 -192.26961082 359.08774424 C-195.55490877 362.51985447 -198.8052726 365.98218557 -202.04286194 369.45935059 C-202.90794373 370.38346741 -203.77302551 371.30758423 -204.6643219 372.25970459 C-206.26148325 373.96822899 -207.85175163 375.6832394 -209.43307495 377.40643311 C-222.09415373 390.909342 -236.92305854 397.90181107 -255.28125 398.9609375 C-272.92046728 399.1462234 -288.604083 392.32569723 -301.2878418 380.16625977 C-303.10193298 378.35154582 -304.90537701 376.52613929 -306.69921875 374.69140625 C-307.66910114 373.71403918 -308.63988853 372.73756944 -309.61152649 371.76194763 C-312.1340699 369.2243229 -314.6443522 366.67491568 -317.15203857 364.12261963 C-319.72604372 361.50727815 -322.31178687 358.90359535 -324.89648438 356.29882812 C-329.94236897 351.21038281 -334.97532287 346.10939751 -340 341 C-335.82222235 336.01407125 -331.46872723 331.33295716 -326.8515625 326.75390625 C-325.86547501 325.76994118 -325.86547501 325.76994118 -324.85946655 324.76609802 C-322.78367138 322.69584732 -320.70440573 320.62912349 -318.625 318.5625 C-317.2067992 317.14932138 -315.78882824 315.73591206 -314.37109375 314.32226562 C-310.91671223 310.87883935 -307.4592163 307.43856901 -304 304 C-300.55370451 305.62800894 -298.2937195 307.46101183 -295.59375 310.17578125 C-294.76746094 311.00400391 -293.94117188 311.83222656 -293.08984375 312.68554688 C-291.80787109 313.98588867 -291.80787109 313.98588867 -290.5 315.3125 C-289.21802734 316.59543945 -289.21802734 316.59543945 -287.91015625 317.90429688 C-281.56105217 324.29797345 -281.56105217 324.29797345 -278.88183594 327.65039062 C-274.63696491 332.9504216 -268.22057704 337.67344927 -261.6875 339.6875 C-257.1514651 340.07190974 -255.86816237 339.37949834 -252 337 C-249.04312801 334.43938082 -246.31997095 331.66825475 -243.58300781 328.87597656 C-242.75938751 328.04797546 -241.93576721 327.21997437 -241.08718872 326.36688232 C-239.30291931 324.57121402 -237.52212368 322.77208876 -235.74442291 320.9699173 C-232.92547571 318.11259936 -230.09741562 315.26461414 -227.26629639 312.41937256 C-220.7425311 305.85955367 -214.23382822 299.28485616 -207.72541809 292.70980835 C-201.76778164 286.69143515 -195.80690451 280.6763672 -189.83369708 274.6734426 C-186.57757865 271.40011705 -183.33338502 268.11525113 -180.09112549 264.82818604 C-178.372724 263.09887703 -176.65389431 261.36999339 -174.93457031 259.64160156 C-174.17578583 258.86731812 -173.41700134 258.09303467 -172.63522339 257.29528809 C-161.20516557 245.86191295 -148.53184286 238.32610969 -132 238 C-115.62361383 238.68819309 -115.62361383 238.68819309 -111 241 C-111.2165625 239.33324219 -111.2165625 239.33324219 -111.4375 237.6328125 C-113.62150379 220.38597726 -114.23105116 205.09289737 -104 190 C-95.12841544 179.33464976 -84.87192086 169.76664323 -75.04527092 160.00067139 C-72.03711076 157.01106554 -69.03352902 154.01688674 -66.03065491 151.02197266 C-57.50122058 142.5165044 -48.96564982 134.01720927 -40.42602539 125.52197266 C-35.68793913 120.80843449 -30.95345555 116.09130717 -26.22280222 111.37030888 C-23.23938916 108.39342211 -20.25153684 105.42108799 -17.26027 102.45209408 C-14.97150639 100.17780979 -12.68926381 97.8969971 -10.40600586 95.6171875 C-9.16633812 94.39066216 -9.16633812 94.39066216 -7.90162659 93.13935852 C-7.149086 92.38551376 -6.39654541 91.63166901 -5.62120056 90.85498047 C-4.96626586 90.20318817 -4.31133116 89.55139587 -3.63654995 88.87985229 C-1.04940181 85.90807843 -0.01833208 83.8982718 0.0625 79.9375 C-1.84875751 69.48179714 -10.95299669 61.4693844 -18.625 54.875 C-24.75072634 49.60881234 -30.33087054 43.74690715 -36 38 C-34.6238464 34.90820864 -33.04841555 32.80361247 -30.65185547 30.42480469 C-29.97130096 29.74440125 -29.29074646 29.0639978 -28.58956909 28.36297607 C-27.4894902 27.27838104 -27.4894902 27.27838104 -26.3671875 26.171875 C-25.23943405 25.04836639 -25.23943405 25.04836639 -24.08889771 23.90216064 C-21.68892099 21.5133698 -19.28207991 19.13163103 -16.875 16.75 C-15.24563648 15.13066831 -13.61672466 13.51088198 -11.98828125 11.890625 C-7.99741194 7.92179495 -4.00088585 3.95873101 0 0 Z " fill="#0070E0" transform="translate(809,453)"/>
<path d="M0 0 C5.99752602 5.42211675 11.62527599 11.0894594 17.13989258 16.99917793 C18.9889232 18.96432234 20.8388125 20.92862208 22.68994141 22.89178658 C23.4102452 23.65666134 23.4102452 23.65666134 24.14510059 24.43698812 C30.91338107 31.61569491 37.78017748 38.70012911 44.64128113 45.78996658 C50.20381333 51.54349976 55.72942674 57.32567696 61.18139648 63.18423653 C65.97077118 68.33049064 70.82173235 73.40904864 75.75139046 78.42120826 C78.34620024 81.06388414 80.90283313 83.72654988 83.38671875 86.4740963 C95.0215029 99.43456456 95.0215029 99.43456456 110.96586704 105.03421366 C118.93017497 105.39119888 126.7847 104.59308847 134.66998291 103.54334831 C162.65987262 100.11634257 162.65987262 100.11634257 171.26489258 106.4322834 C177.70237815 115.20289941 175.65634133 128.82625424 174.63989258 139.0572834 C174.0492848 141.46343829 173.42111527 143.86067037 172.7565918 146.24746895 C170.44811857 156.45361836 169.61089516 166.4691935 175.29161453 175.75812721 C186.15583584 190.70274914 200.56557975 203.26051555 214.09068578 215.74631345 C221.27647654 222.38549511 228.32668429 229.16646159 235.38303471 235.94259357 C236.43449541 236.95185415 237.48602098 237.96104714 238.53761292 238.97017097 C239.30875831 239.71055313 239.30875831 239.71055313 240.09548241 240.46589249 C243.11289229 243.35727897 246.15233614 246.22271783 249.21424943 249.06691402 C265.50550409 264.20298793 277.49952483 277.5857266 278.68041992 300.90420723 C278.91912345 311.66768285 276.79790715 321.51227094 272.20239258 331.2447834 C271.93370361 331.83710762 271.66501465 332.42943184 271.38818359 333.03970528 C267.60171931 340.39637783 261.3332197 346.16448859 255.63989258 352.0572834 C254.97990265 352.74232948 254.31991272 353.42737556 253.6399231 354.13318062 C249.26790752 358.66055508 244.86063447 363.15130778 240.42797852 367.61929512 C238.88296326 369.18112552 237.34336575 370.74833131 235.80883789 372.320467 C233.56645643 374.61718345 231.30844819 376.89739903 229.04614258 379.1744709 C228.01801453 380.23660301 228.01801453 380.23660301 226.96911621 381.32019234 C226.32744507 381.95901344 225.68577393 382.59783455 225.0246582 383.25601387 C224.46572876 383.82303017 223.90679932 384.39004646 223.33093262 384.97424507 C221.63989258 386.0572834 221.63989258 386.0572834 219.65278625 385.93055916 C217.28161498 384.9018479 215.88951993 383.70092376 214.04882812 381.88614082 C213.36519699 381.21842155 212.68156586 380.55070229 211.97721863 379.8627491 C210.88791801 378.77375061 210.88791801 378.77375061 209.77661133 377.66275215 C209.02523392 376.91898827 208.27385651 376.17522438 207.49971008 375.4089222 C205.91488537 373.83489957 204.33401803 372.25688384 202.75683594 370.67520332 C200.33311371 368.25050683 197.88885582 365.84791741 195.44262695 363.44595528 C193.90682288 361.91535641 192.37227364 360.38349719 190.83911133 358.85025215 C190.10278976 358.13032585 189.3664682 357.41039955 188.60783386 356.6686573 C187.93996353 355.99148155 187.2720932 355.3143058 186.58398438 354.61660957 C185.98982224 354.02450188 185.3956601 353.43239418 184.78349304 352.82234383 C183.63989258 351.0572834 183.63989258 351.0572834 183.81697083 348.99424934 C185.11845111 345.93086819 187.33152897 344.0504238 189.70239258 341.7447834 C190.2011792 341.25695381 190.69996582 340.76912422 191.21386719 340.26651192 C193.97185156 337.59004869 196.78993414 335.00140747 199.70239258 332.4947834 C208.31329387 325.07098167 216.16009397 317.96164148 219.63989258 306.8697834 C219.63989258 301.35463526 216.60449244 297.83274025 212.93399048 294.01080513 C211.36659932 292.44385846 209.7909072 290.88518828 208.20874023 289.33316231 C207.34826584 288.47706871 206.48779144 287.62097511 205.60124207 286.73893929 C203.73508992 284.88418784 201.86647987 283.03238478 199.99309158 281.18498802 C197.02595068 278.25858776 194.07044064 275.32062403 191.11654663 272.38086128 C184.30912388 265.60949991 177.48677447 258.85324293 170.66417694 252.09717751 C164.41398801 245.90765351 158.16706672 239.71492286 151.93225706 233.50990236 C149.00079547 230.59331187 146.06219555 227.68417694 143.11775613 224.78069139 C140.84913212 222.53988013 138.59031583 220.28921365 136.32983398 218.04019356 C135.52030777 217.24616631 134.71078156 216.45213905 133.87672424 215.63405037 C122.98834111 204.74873186 118.28356691 193.40037774 118.26489258 177.9322834 C118.34670238 170.83411947 118.86673485 163.95993311 120.63989258 157.0572834 C119.67116211 157.2738459 119.67116211 157.2738459 118.68286133 157.4947834 C104.52011104 160.28470959 87.23848826 161.68528085 74.50172234 153.72014523 C67.78946636 149.16587981 62.16080812 143.97658968 56.48022461 138.20645332 C55.51054841 137.23264537 54.54018566 136.25952064 53.56919861 135.28701973 C51.49853674 133.21031573 49.43263821 131.12903212 47.3704567 129.04390717 C44.10841573 125.74578109 40.83523371 122.45885964 37.56051636 119.17332649 C31.2093782 112.79817616 24.86965948 106.41173899 18.53098297 100.02420235 C10.44213168 91.8743051 2.34746971 83.73019976 -5.75619423 75.59503061 C-9.00982269 72.32802856 -12.25813348 69.05585663 -15.5023315 65.77949083 C-17.5174179 63.74630507 -19.53659878 61.71722307 -21.5568676 59.689188 C-22.93829212 58.29987527 -24.31464303 56.90552348 -25.69084167 55.51103401 C-26.51488998 54.68539955 -27.33893829 53.85976509 -28.18795776 53.0091114 C-28.90134245 52.28998668 -29.61472713 51.57086195 -30.34972954 50.82994556 C-32.8565047 48.61958227 -35.02140512 47.20573871 -38.36791992 46.83462715 C-51.78008794 47.84920075 -61.74176506 60.64437457 -69.98510742 70.1822834 C-70.51491211 70.80361153 -71.0447168 71.42493965 -71.59057617 72.0650959 C-74.99933601 75.90277254 -78.69470072 79.46668091 -82.36010742 83.0572834 C-85.45189878 81.6811298 -87.55649495 80.10569895 -89.93530273 77.70913887 C-90.61570618 77.02858437 -91.29610962 76.34802986 -91.99713135 75.64685249 C-92.7201947 74.91346657 -93.44325806 74.18008064 -94.18823242 73.4244709 C-94.93723816 72.67263527 -95.6862439 71.92079964 -96.45794678 71.14618111 C-98.84673762 68.74620439 -101.22847639 66.33936331 -103.61010742 63.9322834 C-105.22943911 62.30291988 -106.84922544 60.67400806 -108.46948242 59.04556465 C-112.43831247 55.05469535 -116.40137641 51.05816925 -120.36010742 47.0572834 C-118.92069787 43.77157369 -117.14094722 41.58064799 -114.61987305 39.04239082 C-113.4672699 37.87548965 -113.4672699 37.87548965 -112.29138184 36.68501472 C-111.04149475 35.43649475 -111.04149475 35.43649475 -109.76635742 34.16275215 C-108.47441467 32.86438171 -108.47441467 32.86438171 -107.15637207 31.53978157 C-105.32970512 29.70736993 -103.50040905 27.87757598 -101.66870117 26.05020332 C-98.8898892 23.27453152 -96.12460426 20.48587561 -93.36010742 17.69595528 C-91.57966981 15.91324251 -89.79844408 14.13131645 -88.01635742 12.35025215 C-86.79076111 11.11084122 -86.79076111 11.11084122 -85.54040527 9.84639168 C-62.93303285 -12.58354484 -26.73103151 -22.0035826 0 0 Z " fill="#0070E0" transform="translate(589.360107421875,11.942716598510742)"/>
<path d="M0 0 C2.98685943 1.18342022 5.89933376 2.39598183 8.765625 3.84765625 C45.44988179 22.06105339 85.72724838 31.01109971 126.125 36.3125 C127.80650146 36.53329224 127.80650146 36.53329224 129.52197266 36.75854492 C133.3435534 37.22431881 137.16832298 37.62886296 141 38 C142.31806137 38.12920334 142.31806137 38.12920334 143.66275024 38.26101685 C161.53555615 39.95780815 179.35311646 40.36444847 197.29134369 40.31785583 C199.47200188 40.3124139 201.65264921 40.31004783 203.83331299 40.3079834 C225.35307568 40.27624574 246.63158157 39.72875909 268 37 C269.17739746 36.86078125 270.35479492 36.7215625 271.56787109 36.578125 C316.02113975 31.27686563 358.87040905 20.06479547 399 0 C399.1393965 8.85815742 399.24582003 17.7159338 399.31087303 26.57495117 C399.34210532 30.68919789 399.38442651 34.80269091 399.45263672 38.91650391 C399.51812353 42.89121845 399.55376692 46.86521094 399.56926346 50.84042358 C399.58029777 52.35227823 399.60184582 53.86409605 399.63438034 55.37564087 C399.92982801 69.67887291 399.92982801 69.67887291 394.5078125 75.59181213 C394.01023437 76.05651413 393.51265625 76.52121613 393 77 C392.27039063 77.73089844 391.54078125 78.46179688 390.7890625 79.21484375 C342.73403511 117.46803342 268.08610386 122.88345973 209 124 C208.18499023 124.01659668 207.36998047 124.03319336 206.53027344 124.05029297 C201.3502956 124.14107146 196.17954146 124.0976488 191 124 C190.09604492 123.98743164 189.19208984 123.97486328 188.26074219 123.96191406 C138.45798811 123.15572478 86.10890476 116.738832 40 97 C39.23381348 96.67531738 38.46762695 96.35063477 37.67822266 96.01611328 C24.74853972 90.46218277 7.91941502 83.00513524 1.43286133 69.81274414 C-0.89430342 63.42804033 -0.3696473 56.70003536 -0.29296875 50 C-0.2873643 48.55412234 -0.28309822 47.10823894 -0.28010559 45.66235352 C-0.26872344 41.8811229 -0.23931474 38.10024526 -0.20599365 34.31915283 C-0.17514857 30.45109835 -0.1615696 26.58298611 -0.14648438 22.71484375 C-0.11443751 15.14306932 -0.06332309 7.57158437 0 0 Z " fill="#252F3E" transform="translate(236,555)"/>
<path d="M0 0 C4.42685068 0.77698619 7.88525232 2.38857652 11.8125 4.5 C57.44270774 27.9889677 112.2015715 36.02182287 163 39 C163.9605127 39.05639648 164.92102539 39.11279297 165.91064453 39.17089844 C241.78693415 43.389715 326.7427884 36.98556664 394.91796875 0.99609375 C397 0 397 0 399 0 C399.09281293 8.76240308 399.16382186 17.52463611 399.20724869 26.28742409 C399.2280949 30.35666939 399.25635753 34.42557759 399.30175781 38.49462891 C399.3453226 42.42390618 399.36915942 46.35285987 399.37950897 50.28236008 C399.38688138 51.77905748 399.4012782 53.27573782 399.42292023 54.77229691 C399.45209757 56.87413602 399.45595032 58.97465006 399.45410156 61.07666016 C399.46298401 62.27134918 399.47186646 63.46603821 399.48101807 64.69692993 C398.48250974 71.55351845 393.15000266 76.69769689 388 81 C336.34424706 117.80001085 261.49725116 123.26658385 200.1875 123.1875 C199.30603302 123.18689575 198.42456604 123.1862915 197.51638794 123.18566895 C139.31068381 123.07853988 56.06615657 119.30788699 10 79 C9.3090625 78.40574219 8.618125 77.81148438 7.90625 77.19921875 C3.08659678 72.74499006 0.29376815 68.51495662 -0.26254272 61.85865784 C-0.34709329 57.93618278 -0.33768964 54.02019522 -0.29296875 50.09765625 C-0.287366 48.65034934 -0.28309911 47.2030367 -0.28010559 45.75572205 C-0.26871009 41.96625768 -0.23928949 38.17714416 -0.20599365 34.38781738 C-0.17517775 30.51315048 -0.16157577 26.63842629 -0.14648438 22.76367188 C-0.11441388 15.17562217 -0.06328279 7.58786045 0 0 Z " fill="#252F3E" transform="translate(236,426)"/>
<path d="M0 0 C3.40545584 1.11780205 6.66966209 2.21621194 9.86328125 3.84765625 C55.68488781 26.7037425 108.26119998 35.72564778 159 39 C159.98264328 39.06355179 159.98264328 39.06355179 160.98513794 39.12838745 C173.72230606 39.93054724 186.42664173 40.20262664 199.1875 40.1875 C200.1412149 40.18689575 201.09492981 40.1862915 202.07754517 40.18566895 C264.92196244 40.07851845 338.68482747 34.12107148 393.921875 1.73828125 C397 0 397 0 399 0 C399.09281293 8.76240308 399.16382186 17.52463611 399.20724869 26.28742409 C399.2280949 30.35666939 399.25635753 34.42557759 399.30175781 38.49462891 C399.3453226 42.42390618 399.36915942 46.35285987 399.37950897 50.28236008 C399.38688138 51.77905748 399.4012782 53.27573782 399.42292023 54.77229691 C399.45209757 56.87413602 399.45595032 58.97465006 399.45410156 61.07666016 C399.46298401 62.27134918 399.47186646 63.46603821 399.48101807 64.69692993 C398.42430334 71.95321203 392.44020925 77.47063248 387 82 C346.4215637 110.08519652 291.34150559 118.67189314 243 122 C241.85047852 122.08612549 240.70095703 122.17225098 239.51660156 122.26098633 C226.60225105 123.16885336 213.69135415 123.20003985 200.75 123.1875 C199.02206207 123.18659363 199.02206207 123.18659363 197.25921631 123.18566895 C136.99908606 123.0999281 62.38331495 118.06543234 12 81 C11.06414062 80.32324219 11.06414062 80.32324219 10.109375 79.6328125 C5.23800772 75.86857414 1.19005366 71.11869325 0 65 C-0.08722819 62.86114397 -0.1176739 60.71973153 -0.11352539 58.57910156 C-0.11344986 57.27805481 -0.11337433 55.97700806 -0.11329651 54.63653564 C-0.10819024 53.22123171 -0.10297425 51.80592816 -0.09765625 50.390625 C-0.09579035 48.93902637 -0.09436726 47.48742712 -0.09336853 46.03582764 C-0.08955688 42.22180431 -0.07973815 38.40781927 -0.06866455 34.59381104 C-0.05842135 30.69926471 -0.05386468 26.80471217 -0.04882812 22.91015625 C-0.03811465 15.27342007 -0.02105449 7.63671541 0 0 Z " fill="#252F3E" transform="translate(236,296)"/>
</svg>
